<svg width="81" height="60" viewBox="0 0 81 60" fill="none" xmlns="http://www.w3.org/2000/svg">
<g clip-path="url(#clip0_2553_26434)">
<path d="M0.805664 40H80.8057V60H0.805664V40Z" fill="black"/>
<path d="M0.805664 20H80.8057V40H0.805664V20Z" fill="white"/>
<path d="M0.805664 0H80.8057V20H0.805664V0Z" fill="#CE1126"/>
<path d="M40.8857 30.2399L47.7357 36.5999L47.2457 25.0499C47.1757 23.2999 45.6557 23.6999 44.5457 24.3299C43.4357 25.0499 42.1457 25.0499 40.8057 24.5799C39.4557 25.0499 38.1757 25.0499 37.0657 24.3299C35.9657 23.6999 34.4357 23.2999 34.3657 25.0499L33.8757 36.5999L40.8857 30.2399Z" fill="white" stroke="#C09300" stroke-width="0.13" stroke-linejoin="round"/>
<path d="M35.1557 24.6499L34.6757 35.8799L33.8757 36.5999L34.3657 25.0499C34.602 24.8687 34.8699 24.7331 35.1557 24.6499ZM36.1157 25.4499L35.7157 34.8499L34.9157 35.6699L35.3957 24.8199C35.5557 24.9799 36.0257 25.3699 36.1157 25.4499ZM36.9857 26.1699L36.6757 34.0099L36.0257 34.6399L36.4257 25.6999C36.5857 25.8499 36.9057 26.0799 36.9857 26.1699ZM37.9357 26.5699L37.6257 33.2499L36.9957 33.7599L37.3057 26.3299C37.4657 26.3999 37.7757 26.5699 37.9357 26.5699ZM38.8157 26.5699L38.5857 32.1399L37.9357 32.7699L38.1857 26.6399C38.3357 26.6399 38.7457 26.6399 38.8157 26.5699Z" fill="#C09300"/>
<path d="M46.4558 24.6499L46.9358 35.8799L47.7358 36.5999L47.2458 25.0499C47.0096 24.8687 46.7417 24.7331 46.4558 24.6499ZM45.4958 25.4499L45.8958 34.8499L46.6958 35.6699L46.2158 24.8199C46.0558 24.9799 45.5858 25.3699 45.4958 25.4499ZM44.6258 26.1699L44.9358 34.0099L45.5858 34.6399L45.1858 25.6999C45.0258 25.8499 44.7058 26.0799 44.6258 26.1699ZM43.6758 26.5699L43.9858 33.2499L44.6158 33.7599L44.3058 26.3299C44.1458 26.3999 43.8358 26.5699 43.6758 26.5699ZM42.7958 26.5699L43.0258 32.1399L43.6758 32.7699L43.4258 26.6399C43.2758 26.6399 42.8658 26.6399 42.7958 26.5699Z" fill="#C09300"/>
<path d="M41.1256 31.5L42.0856 35.88L41.7656 36.2L41.4356 35.95L40.8956 32.05L41.1256 35.95L40.8056 36.35L40.4956 35.95L40.7256 32.05L40.1756 35.95L39.8456 36.2L39.5256 35.88L40.4856 31.51H41.1256V31.5Z" fill="#C09300" stroke="#C09300" stroke-width="0.11"/>
<path d="M38.6559 29.58L36.7458 36.35L39.3759 36.75L40.4858 31.66L38.6559 29.58Z" fill="white" stroke="#C09300" stroke-width="0.12" stroke-linejoin="round"/>
<path d="M38.0259 31.9L38.2559 32.45L39.4959 31.27" stroke="#C09300" stroke-width="0.13" stroke-linejoin="round"/>
<path d="M38.8858 30.5L39.1458 32.93L39.9358 31.89M39.6158 32.29L40.0458 33.79M40.2158 33.24L39.3458 34.56M39.6158 35.88L39.3358 34.56M39.3358 34.56L39.0958 33.22L38.5058 34.01L38.2558 33.1L37.4358 33.94L37.8458 35.46L38.4258 34.52L38.7358 35.48L39.3358 34.56Z" stroke="#C09300" stroke-width="0.13" stroke-linejoin="round"/>
<path d="M37.3059 36.2L37.8359 35.45L38.1759 36.6L38.6559 35.8L38.9659 36.76" stroke="#C09300" stroke-width="0.13" stroke-linejoin="round"/>
<path d="M42.9557 29.58L44.8657 36.35L42.2357 36.75L41.1257 31.66L42.9557 29.58Z" fill="white" stroke="#C09300" stroke-width="0.12" stroke-linejoin="round"/>
<path d="M43.5857 31.9L43.3557 32.45L42.1157 31.27" stroke="#C09300" stroke-width="0.13" stroke-linejoin="round"/>
<path d="M42.7258 30.5L42.4658 32.93L41.6758 31.89M41.9958 32.29L41.5658 33.79M41.3958 33.24L42.2658 34.56M41.9958 35.88L42.2758 34.56M42.2758 34.56L42.5158 33.22L43.1058 34.01L43.3558 33.1L44.1758 33.94L43.7658 35.46L43.1858 34.52L42.8758 35.48L42.2758 34.56Z" stroke="#C09300" stroke-width="0.13" stroke-linejoin="round"/>
<path d="M44.3057 36.2L43.7757 35.45L43.4357 36.6L42.9557 35.8L42.6457 36.76" stroke="#C09300" stroke-width="0.13" stroke-linejoin="round"/>
<path d="M40.8056 39.3799C42.8056 39.3799 44.7056 39.2199 45.8256 38.9099C46.2956 38.8199 46.2956 38.5799 46.2956 38.2599C46.7756 38.0999 46.5356 37.5399 46.8656 37.5399C46.5256 37.6399 46.4656 36.9899 46.0656 37.0699C46.0656 36.5099 45.4956 36.4399 45.0256 36.5999C44.0756 36.9099 42.3956 36.9899 40.8056 36.9899C39.2056 36.9099 37.5456 36.9099 36.5856 36.5899C36.1156 36.4399 35.5556 36.5099 35.5556 37.0699C35.1556 36.9899 35.0856 37.6299 34.7556 37.5399C35.0856 37.5399 34.8356 38.1099 35.3156 38.2599C35.3156 38.5799 35.3156 38.8199 35.7956 38.9099C36.8956 39.2199 38.8156 39.3799 40.8056 39.3799Z" fill="white" stroke="#C09300" stroke-width="0.24" stroke-linecap="round" stroke-linejoin="round"/>
<path d="M38.0956 36.3499C38.7356 36.4399 39.4556 36.5099 40.0156 36.4399C40.3356 36.4399 40.5656 36.9899 39.9256 37.0699C39.3756 37.1399 38.4956 37.0699 38.0256 36.9899C37.4071 36.8817 36.7933 36.7482 36.1856 36.5899C35.6256 36.3499 36.0256 35.8899 36.3456 35.9499C36.9165 36.1328 37.502 36.2666 38.0956 36.3499ZM43.5156 36.3499C42.8756 36.4399 42.1556 36.5099 41.6156 36.4399C41.2756 36.4399 41.0456 36.9899 41.6856 37.0699C42.2456 37.1399 43.1156 37.0699 43.5856 36.9899C43.9856 36.9099 44.8656 36.7599 45.4256 36.5899C45.9856 36.3499 45.5856 35.8899 45.2656 35.9499C44.6947 36.1329 44.1093 36.2667 43.5156 36.3499Z" fill="white" stroke="#C09300" stroke-width="0.13" stroke-linecap="round" stroke-linejoin="round"/>
<path d="M36.1056 36.0399C35.6256 35.9499 35.4056 36.5099 35.5556 36.8299C35.6256 36.6699 35.9556 36.6699 36.0256 36.5099C36.1156 36.2699 35.9556 36.2699 36.1156 36.0399H36.1056ZM38.0256 37.5099C38.0256 37.1899 38.3356 37.2299 38.3356 36.9099C38.3356 36.7599 38.2556 36.5099 38.0956 36.5099C38.0123 36.5147 37.9336 36.55 37.8746 36.609C37.8156 36.668 37.7804 36.7466 37.7756 36.8299C37.7056 37.1399 38.0256 37.1899 38.0256 37.5099ZM40.2956 36.5999C40.7656 36.5999 40.7156 37.2299 40.4956 37.5499C40.4956 37.3199 40.0956 37.2299 40.0956 37.0699C40.0956 36.8299 40.4556 36.8299 40.2956 36.5999ZM45.4956 36.0399C45.9856 35.9499 46.2156 36.5099 46.0556 36.8299C45.9856 36.6699 45.6556 36.6699 45.5856 36.5099C45.4956 36.2699 45.6556 36.2699 45.4956 36.0399ZM43.6056 37.4999C43.6056 37.1799 43.2856 37.2199 43.2856 36.8999C43.2856 36.7499 43.3656 36.4999 43.5256 36.4999C43.6089 36.5047 43.6876 36.54 43.7466 36.599C43.8056 36.658 43.8408 36.7366 43.8456 36.8199C43.9156 37.1299 43.5956 37.1799 43.5956 37.4999H43.6056ZM41.3056 36.5999C40.8356 36.5999 40.8856 37.2299 41.1056 37.5499C41.1056 37.3199 41.5056 37.2299 41.5056 37.0699C41.5056 36.8299 41.1456 36.8299 41.3056 36.5999Z" fill="white" stroke="#C09300" stroke-width="0.13" stroke-linecap="round" stroke-linejoin="round"/>
<path d="M36.2756 36.2C36.4356 36.2 36.6756 36.27 36.7456 36.36L36.2756 36.2ZM37.0656 36.44C37.1456 36.44 37.4656 36.51 37.6156 36.6L37.0656 36.44ZM39.9256 36.76C39.7756 36.76 39.4556 36.7599 39.3756 36.8299L39.9256 36.75V36.76ZM39.0556 36.76C38.9656 36.67 38.6556 36.67 38.4956 36.76H39.0556ZM45.3356 36.2C45.166 36.2021 45.0014 36.2581 44.8656 36.36L45.3356 36.2ZM44.5556 36.44C44.4556 36.44 44.1556 36.51 43.9956 36.6L44.5556 36.44ZM41.6856 36.76C41.8356 36.76 42.1556 36.7599 42.2456 36.8299L41.6856 36.75V36.76ZM42.5556 36.76C42.6456 36.67 42.9556 36.67 43.1156 36.76H42.5556Z" fill="white" stroke="#C09300" stroke-width="0.09" stroke-linecap="round" stroke-linejoin="round"/>
<path d="M36.1356 37.4599C36.0856 37.4499 36.0556 37.3999 36.0756 37.3599C36.0856 37.2899 36.1356 37.2599 36.1756 37.2799C36.2156 37.2799 36.2656 37.3399 36.2656 37.3599L36.2256 37.4299L36.2056 37.4399C36.2056 37.4599 36.1656 37.4599 36.1356 37.4599ZM41.6356 37.8499C41.6156 37.8499 41.5756 37.7999 41.5756 37.7799C41.5756 37.7399 41.6356 37.6799 41.6756 37.6799L41.7556 37.7199C41.7856 37.7499 41.7856 37.8099 41.7456 37.8399C41.7256 37.8599 41.6656 37.8599 41.6356 37.8399V37.8499ZM41.6656 38.0999C41.6256 38.0799 41.6156 38.0599 41.6056 38.0199C41.6056 37.9699 41.6056 37.9599 41.6556 37.9299L41.6956 37.9099L41.7356 37.9299C41.7756 37.9499 41.8056 37.9699 41.8056 38.0099C41.8056 38.0399 41.7756 38.0699 41.7356 38.0899C41.7056 38.1099 41.6956 38.1099 41.6656 38.0899V38.0999Z" fill="#C09300"/>
<path d="M36.5855 36.9999C36.5455 36.9999 36.4955 37.0399 36.4655 37.0599C36.4055 37.0699 36.3255 37.1099 36.2655 37.0599C36.2055 37.0499 36.1255 37.0599 36.1155 37.1399C36.1255 37.2099 36.2155 37.2399 36.2755 37.1999C36.3155 37.1499 36.4255 37.1099 36.4455 37.1999C36.3955 37.2799 36.4055 37.3699 36.3655 37.4399C36.3655 37.4899 36.3355 37.5299 36.3155 37.5699C36.2655 37.5699 36.2155 37.5699 36.1755 37.5999C36.1445 37.5999 36.1139 37.6071 36.0861 37.621C36.0583 37.6349 36.0342 37.655 36.0155 37.6799C35.9755 37.7399 35.9355 37.7999 35.9255 37.8799C35.9355 37.9399 36.0255 37.9599 36.0855 37.9699L36.2855 38.0299L36.6055 38.1199C36.7655 38.1699 36.9255 38.1899 37.0855 38.2299L37.1355 38.2399C37.2055 38.2599 37.2355 38.1899 37.2355 38.1399L37.3355 37.7799C37.3555 37.7299 37.3855 37.6299 37.2955 37.6499C37.2455 37.6799 37.1955 37.7299 37.1355 37.7299C37.0455 37.7299 37.0955 37.8299 37.1355 37.8599C37.1355 37.9199 37.1155 37.9899 37.0855 38.0399C37.0255 38.0699 36.9655 38.0399 36.9055 38.0199C36.8555 38.0199 36.7355 37.9899 36.7855 37.9199L36.8355 37.7399C36.8655 37.6799 36.8655 37.6099 36.8855 37.5399C36.8455 37.4699 36.7855 37.5699 36.7355 37.5799C36.6955 37.5999 36.5755 37.6099 36.6355 37.6799C36.6955 37.7199 36.6555 37.7899 36.6355 37.8499C36.6355 37.9199 36.5555 37.9499 36.4955 37.9199C36.4355 37.9199 36.3455 37.8699 36.3955 37.8099L36.4455 37.6299L36.5155 37.4299C36.5155 37.3599 36.5455 37.3099 36.5755 37.2499C36.5755 37.1799 36.6255 37.1199 36.6255 37.0499C36.6255 37.0199 36.6055 37.0099 36.5855 37.0099V36.9999ZM36.2155 37.7299C36.2201 37.7272 36.2253 37.7259 36.2305 37.7259C36.2358 37.7259 36.241 37.7272 36.2455 37.7299C36.2655 37.7499 36.2655 37.7699 36.2455 37.7899L36.2155 37.8099C36.1655 37.8099 36.1555 37.7999 36.1555 37.7799C36.1555 37.7699 36.1555 37.7599 36.1855 37.7499C36.1977 37.7411 36.2112 37.7344 36.2255 37.7299H36.2155ZM36.1155 38.2299C36.0655 38.1899 36.0755 38.1599 36.1455 38.0999C36.1855 38.0799 36.1955 38.0799 36.2355 38.1099C36.2955 38.1599 36.2955 38.1899 36.2355 38.2399C36.2155 38.2599 36.2055 38.2599 36.1855 38.2599C36.1555 38.2599 36.1455 38.2599 36.1155 38.2399V38.2299ZM36.4155 38.3299C36.3932 38.3229 36.3745 38.3076 36.3633 38.287C36.3521 38.2665 36.3493 38.2424 36.3555 38.2199C36.3755 38.1799 36.3855 38.1699 36.4455 38.1699C36.5155 38.1699 36.5255 38.1799 36.5355 38.2399C36.5355 38.2799 36.5355 38.2899 36.5055 38.3099C36.4944 38.3187 36.4815 38.3251 36.4677 38.3285C36.4539 38.332 36.4395 38.3324 36.4255 38.3299H36.4155ZM45.3355 38.3299C45.3155 38.3199 45.3055 38.3099 45.3055 38.2799C45.3055 38.2399 45.3255 38.2099 45.3855 38.1899C45.4455 38.1599 45.4855 38.1599 45.5055 38.2099C45.5355 38.2699 45.5355 38.2899 45.4955 38.3299C45.4755 38.3599 45.4655 38.3599 45.4155 38.3599C45.3655 38.3599 45.3555 38.3599 45.3355 38.3399V38.3299ZM36.8355 38.4499C36.7955 38.4499 36.7755 38.4099 36.7755 38.3699C36.7755 38.3399 36.7755 38.3299 36.7955 38.3099L36.8555 38.2899L36.9155 38.2999C36.9655 38.3399 36.9755 38.3799 36.9455 38.4199C36.9155 38.4599 36.8855 38.4599 36.8255 38.4499H36.8355ZM39.0155 38.5499L38.9955 38.5199C38.9955 38.4599 38.9955 38.4099 39.0155 38.3499C39.0255 38.2999 39.0155 38.2499 39.0355 38.1999L39.0755 37.9199C39.0755 37.8699 39.0755 37.8199 39.0955 37.7799C39.1055 37.6999 39.0955 37.6299 39.1155 37.5599C39.1155 37.5299 39.1455 37.4599 39.1755 37.4999C39.2155 37.5599 39.2655 37.5999 39.3155 37.6499C39.3555 37.6799 39.3155 37.7199 39.2855 37.7299C39.2455 37.7399 39.2355 37.7899 39.2355 37.8299L39.2155 37.9499C39.2155 38.0199 39.2155 38.0799 39.1955 38.1499L39.1855 38.3299L39.1655 38.4499C39.1655 38.4899 39.1655 38.5399 39.1255 38.5599C39.0955 38.5799 39.0455 38.5799 39.0255 38.5499H39.0155ZM41.9855 37.5699L41.8555 37.6899C41.7955 37.7399 41.9055 37.7599 41.9155 37.7999C41.9355 37.8599 41.9355 37.9199 41.9355 37.9799C41.9555 38.0399 41.9655 38.0899 41.9555 38.1499C41.9555 38.2199 41.8755 38.1999 41.8355 38.2399C41.7855 38.2599 41.7655 38.3099 41.7355 38.3399C41.7118 38.39 41.6982 38.4444 41.6955 38.4999C41.6955 38.5499 41.6655 38.5999 41.6955 38.6399L41.7055 38.6599H41.7555L41.9055 38.6499C42.0255 38.6299 42.1555 38.6299 42.2755 38.6199L42.4955 38.5999C42.5555 38.6099 42.5855 38.5499 42.5855 38.4999C42.5455 38.4299 42.5755 38.3599 42.5455 38.2999C42.5255 38.2199 42.5355 38.1499 42.5255 38.0799C42.5255 38.0199 42.4555 37.9999 42.4255 38.0399C42.3855 38.0799 42.3255 38.0899 42.3055 38.1299C42.2755 38.1899 42.3655 38.1899 42.3855 38.2299L42.3955 38.3799C42.4055 38.4399 42.3455 38.4399 42.2955 38.4499C42.2455 38.4699 42.1755 38.4799 42.1455 38.4199C42.1255 38.3699 42.1255 38.3199 42.1255 38.2699C42.1255 38.1699 42.0955 38.0899 42.0955 37.9999C42.0955 37.8999 42.0655 37.7899 42.0655 37.6799C42.0655 37.6299 42.0555 37.5599 41.9855 37.5699ZM41.9255 38.3899H41.9555V38.4699L41.9255 38.4799C41.9124 38.484 41.8991 38.4874 41.8855 38.4899C41.8789 38.4901 41.8722 38.4901 41.8655 38.4899C41.8455 38.4699 41.8455 38.4399 41.8755 38.4099L41.9255 38.3899ZM38.9255 37.4699C38.8955 37.4699 38.8455 37.5399 38.8055 37.5299C38.7155 37.5399 38.7255 37.6299 38.7955 37.6599V37.7399C38.8055 37.8199 38.7555 37.8899 38.7655 37.9699C38.7655 38.0499 38.7355 38.1399 38.7355 38.2299C38.7055 38.3199 38.7055 38.4099 38.6955 38.4999C38.6855 38.5799 38.6255 38.5499 38.5755 38.5299V38.4299C38.5855 38.3399 38.5255 38.3199 38.4555 38.3099C38.3855 38.3099 38.3555 38.2599 38.3755 38.1999C38.4055 38.1599 38.4755 38.1699 38.5255 38.1699C38.6255 38.1899 38.6155 38.0599 38.5655 38.0099C38.5255 37.9499 38.4455 37.9099 38.4255 37.8499C38.4255 37.7699 38.3755 37.6799 38.3055 37.6399C38.1955 37.6299 38.1055 37.7199 38.0755 37.8199C38.0255 37.8199 37.9755 37.8399 37.9355 37.8599C37.8655 37.8799 37.7655 37.9999 37.8655 38.0499C37.9155 38.0599 38.0855 38.0999 38.0055 38.1699C37.9655 38.2499 37.8855 38.2499 37.8155 38.2299C37.7455 38.2299 37.6655 38.1899 37.6655 38.1099C37.6555 38.0299 37.6555 37.9499 37.6255 37.8799C37.6055 37.7999 37.5155 37.8199 37.5055 37.8999C37.4355 37.9499 37.4455 38.0399 37.4955 38.0999C37.5255 38.1699 37.4955 38.2599 37.4655 38.3199C37.4455 38.4199 37.3455 38.4199 37.2755 38.4399C37.2455 38.4599 37.1155 38.4399 37.1655 38.5099C37.2405 38.5444 37.3244 38.5549 37.4055 38.5399C37.4855 38.5399 37.5555 38.4699 37.6055 38.3999C37.6555 38.3499 37.7455 38.3799 37.8255 38.3799C37.8955 38.3799 37.9755 38.4299 38.0555 38.3899C38.0755 38.3399 38.1755 38.2399 38.2055 38.3399C38.2055 38.4299 38.2755 38.4699 38.3555 38.4599C38.4455 38.4599 38.4055 38.5199 38.4055 38.5799C38.4055 38.6699 38.4755 38.7199 38.5555 38.7599H38.6355C38.7055 38.7299 38.7855 38.6999 38.8155 38.6199C38.8455 38.5499 38.8455 38.4699 38.8655 38.3999C38.8855 38.2899 38.9055 38.1699 38.9055 38.0599C38.9355 37.9599 38.9255 37.8499 38.9455 37.7399L38.9755 37.5099C38.9755 37.4599 38.9555 37.4599 38.9255 37.4699ZM38.2555 37.8799C38.2655 37.8799 38.2755 37.8999 38.2755 37.9299C38.2755 37.9699 38.2955 37.9999 38.3255 38.0099V38.0399L38.2455 38.0599C38.1955 38.0599 38.1555 38.0399 38.1255 38.0099L38.1055 37.9899L38.1355 37.9699L38.1855 37.9199C38.2155 37.8899 38.2355 37.8799 38.2555 37.8799ZM44.8555 37.0899C44.798 37.094 44.741 37.1041 44.6855 37.1199C44.5855 37.1199 44.5355 37.2199 44.6355 37.2799C44.6955 37.4299 44.7855 37.2399 44.8855 37.2599C45.0255 37.2799 45.0355 37.4399 45.0655 37.5599C45.0655 37.6699 45.1055 37.7799 45.1355 37.8899C45.2355 37.9999 45.0655 38.0699 44.9955 37.9899C44.9355 37.9199 44.7955 37.8399 44.7255 37.9299C44.6355 37.9699 44.6255 38.0899 44.5555 38.1299C44.4355 38.1599 44.4255 38.0099 44.3555 37.9499C44.2955 37.8599 44.1855 37.8499 44.0955 37.8299C44.0555 37.7399 44.0755 37.5899 43.9955 37.5299C43.9155 37.5599 43.7755 37.6999 43.8955 37.7699C43.9955 37.8699 43.8455 37.9099 43.7955 37.9699C43.7155 38.0599 43.6955 38.1699 43.6955 38.2699C43.5655 38.3399 43.5455 38.1899 43.5255 38.0999C43.5255 37.9899 43.4255 38.0199 43.3555 38.0599C43.2555 38.0999 43.2155 38.1899 43.1555 38.2599V38.4599C43.1755 38.5499 43.2755 38.5099 43.3355 38.4999C43.4355 38.4599 43.4755 38.5699 43.3955 38.6299C43.3355 38.6899 43.1755 38.6599 43.1955 38.7699H43.3555C43.4555 38.7399 43.5755 38.6599 43.5855 38.5399C43.6055 38.4399 43.7555 38.4499 43.8355 38.4299C43.9355 38.3999 44.0655 38.3899 44.0955 38.5299C44.1655 38.5999 44.3155 38.6799 44.3955 38.5799C44.4336 38.5557 44.4641 38.5214 44.4836 38.4807C44.5031 38.44 44.5107 38.3947 44.5055 38.3499C44.4955 38.2699 44.6355 38.2699 44.6755 38.3199C44.7255 38.3999 44.8855 38.3799 44.9655 38.3199C45.0455 38.2699 45.0655 38.1599 45.1855 38.1599L45.7255 38.0099C45.8655 37.9799 45.7055 37.8899 45.6655 37.8299C45.5655 37.7799 45.4655 37.9999 45.3455 37.8899C45.2455 37.8199 45.2555 37.6899 45.2255 37.5799C45.1955 37.4399 45.2055 37.2799 45.1055 37.1799C45.0455 37.1099 44.9455 37.0899 44.8555 37.0899ZM44.1755 38.0399C44.1855 38.0399 44.2055 38.0399 44.2255 38.0599C44.2655 38.0799 44.2955 38.1199 44.2955 38.1599C44.2955 38.1799 44.2955 38.1799 44.2655 38.1899L44.2155 38.2099C44.1955 38.2099 44.1455 38.1799 44.1455 38.1599V38.1199C44.1255 38.0799 44.1255 38.0799 44.1455 38.0599L44.1755 38.0399ZM44.8255 38.0799C44.8655 38.0799 44.8855 38.0799 44.9055 38.1099C44.9155 38.1499 44.9055 38.1699 44.8655 38.1899L44.8155 38.2099L44.7755 38.1799C44.7555 38.1699 44.7455 38.1599 44.7455 38.1399C44.7455 38.1099 44.7855 38.0799 44.8255 38.0699V38.0799ZM43.9255 38.0799C43.9455 38.0799 43.9555 38.0799 43.9655 38.0999C43.9855 38.1199 43.9955 38.1299 43.9955 38.1599V38.2199C43.9955 38.2499 43.9955 38.2399 43.9355 38.2399C43.8755 38.2399 43.8655 38.2399 43.8655 38.1799C43.8655 38.1399 43.8655 38.1299 43.8955 38.1099C43.9055 38.0899 43.9255 38.0899 43.9355 38.0899L43.9255 38.0799ZM43.3855 38.2299C43.395 38.2327 43.4036 38.2379 43.4105 38.2449C43.4175 38.2518 43.4227 38.2604 43.4255 38.2699C43.4255 38.2999 43.4255 38.3199 43.4055 38.3299C43.3755 38.3399 43.3255 38.3499 43.3055 38.3299C43.3053 38.3265 43.3053 38.3232 43.3055 38.3199C43.2855 38.3099 43.2855 38.2999 43.3055 38.2899V38.2799L43.3255 38.2499C43.3317 38.2401 43.341 38.2328 43.352 38.2292C43.3629 38.2255 43.3748 38.2258 43.3855 38.2299ZM44.3055 38.3499L44.3555 38.3599V38.4199H44.2355L44.2255 38.3999C44.2255 38.3799 44.2255 38.3699 44.2455 38.3599L44.3055 38.3499ZM42.5955 38.8299C42.5855 38.8299 42.5655 38.8199 42.5855 38.8099C42.5955 38.7799 42.6355 38.7699 42.6655 38.7499C42.72 38.7291 42.7682 38.6947 42.8055 38.6499C42.8055 38.6099 42.8455 38.5899 42.8455 38.5499L42.8355 38.4099C42.822 38.3679 42.7936 38.3323 42.7555 38.3099C42.7255 38.2999 42.6855 38.2899 42.6755 38.2499C42.6755 38.2199 42.7055 38.1899 42.7155 38.1599L42.7755 38.0399C42.8055 38.0099 42.8455 38.0399 42.8555 38.0599L42.9055 38.1599C42.9355 38.1899 42.9555 38.2199 42.9655 38.2599C42.9855 38.2999 43.0055 38.3299 43.0055 38.3599L43.0255 38.4899C43.0255 38.5399 43.0255 38.5999 43.0055 38.6499L42.9455 38.7299C42.9155 38.7599 42.8855 38.7899 42.8455 38.7999C42.8155 38.8099 42.7955 38.8399 42.7555 38.8399H42.6055L42.5955 38.8299ZM41.9055 38.8699C41.8855 38.8499 41.8755 38.8399 41.8755 38.8099C41.8755 38.7799 41.8755 38.7799 41.9055 38.7499C41.9455 38.7099 41.9655 38.7099 42.0455 38.7499C42.1155 38.7899 42.1455 38.7899 42.1455 38.7599C42.1555 38.7399 42.1955 38.7099 42.2455 38.7099C42.264 38.7106 42.2817 38.7176 42.2955 38.7299C42.3155 38.7499 42.3255 38.7599 42.3255 38.7999C42.3255 38.8499 42.3255 38.8499 42.2955 38.8799C42.2655 38.8999 42.2655 38.8999 42.2255 38.8999C42.2078 38.8989 42.1907 38.8927 42.1764 38.882C42.1622 38.8713 42.1514 38.8567 42.1455 38.8399C42.1455 38.8199 42.1455 38.8099 42.1255 38.8299L42.1055 38.8399C42.0855 38.8399 42.0455 38.8699 42.0255 38.8899L41.9755 38.8999C41.9355 38.8999 41.9355 38.8999 41.9055 38.8699ZM39.9255 37.9799C39.8555 37.9799 39.7855 38.0399 39.7755 38.1099C39.7955 38.1799 39.8555 38.2599 39.8155 38.3299C39.8455 38.4299 39.7355 38.4699 39.6655 38.4199C39.6255 38.3199 39.6055 38.2199 39.5355 38.1199C39.4555 38.0999 39.4255 38.2299 39.3655 38.2799C39.3955 38.3499 39.4755 38.4199 39.4855 38.5099C39.5055 38.6099 39.4455 38.7099 39.3755 38.7499C39.3055 38.8199 39.2055 38.7999 39.1255 38.8099C39.0255 38.8699 39.1955 38.8899 39.2455 38.8899C39.3455 38.8999 39.4555 38.8899 39.5455 38.8099C39.6155 38.7799 39.6055 38.6399 39.6955 38.6299L40.1755 38.6599C40.2555 38.6799 40.3855 38.6499 40.4455 38.7099C40.4455 38.8099 40.5455 38.8899 40.6355 38.9299C40.6855 38.9499 40.7355 38.8799 40.7855 38.8699C40.8855 38.8399 40.8555 38.7199 40.9155 38.6699H41.4155C41.4355 38.6699 41.4455 38.6199 41.4755 38.5999L41.4555 38.4099C41.4255 38.3299 41.4555 38.2299 41.4055 38.1599C41.3155 38.1399 41.2455 38.2099 41.1655 38.2199C41.0655 38.2599 40.9955 38.3499 40.9855 38.4499C40.9355 38.5399 40.8455 38.4299 40.8855 38.3499L40.8755 38.2499C40.8255 38.1999 40.7355 38.2199 40.6655 38.2099L40.3655 38.1899C40.2655 38.1899 40.1755 38.1999 40.0955 38.1799C39.9955 38.1799 39.9955 38.0799 39.9955 37.9999C39.9755 37.9847 39.9506 37.9775 39.9255 37.9799ZM40.1255 38.3499L40.2255 38.3599H40.3555C40.4555 38.3799 40.5555 38.3799 40.6555 38.3799C40.6755 38.3799 40.6955 38.3999 40.7155 38.4199V38.6199C40.7155 38.6499 40.7155 38.6899 40.6955 38.6999C40.6903 38.7078 40.6835 38.7146 40.6755 38.7199C40.6609 38.7173 40.647 38.7114 40.6349 38.7028C40.6228 38.6941 40.6127 38.6829 40.6055 38.6699V38.5299C40.5857 38.5131 40.5613 38.5027 40.5355 38.4999L40.2755 38.4899L40.0755 38.4799C40.0455 38.4699 40.0055 38.4799 39.9855 38.4399C39.9655 38.4199 39.9955 38.3799 40.0255 38.3699C40.057 38.3558 40.0911 38.349 40.1255 38.3499ZM41.2555 38.3799C41.2655 38.3799 41.2755 38.3799 41.2755 38.4099L41.2955 38.4599C41.2955 38.4699 41.2955 38.4799 41.2755 38.4799C41.2255 38.4999 41.1755 38.4999 41.1555 38.4799C41.1555 38.4699 41.1555 38.4299 41.1755 38.4199L41.2555 38.3799Z" fill="#C09300"/>
<path d="M40.8057 32.7199C44.0657 30.2199 43.7857 26.5399 43.7857 26.5399L43.5357 26.5599C42.8457 26.5599 41.2157 26.1599 40.8357 25.6699C40.4357 26.1199 38.7557 26.5699 38.0757 26.5699L37.8257 26.5399C37.8257 26.5399 37.5357 30.2099 40.8057 32.7199Z" fill="white" stroke="#C09300" stroke-width="0.11"/>
<path d="M43.5257 26.8H43.4457C42.8257 26.8 41.3857 26.49 40.8257 26.01C40.2457 26.45 38.7757 26.81 38.1657 26.81C38.1388 26.809 38.112 26.8056 38.0857 26.8C38.0912 27.432 38.1786 28.0605 38.3457 28.67C38.7468 30.1384 39.6092 31.439 40.8057 32.38C42.0029 31.4354 42.8652 30.1315 43.2657 28.66C43.432 28.0538 43.5194 27.4286 43.5257 26.8Z" fill="white" stroke="#C09300" stroke-width="0.09"/>
<path d="M39.7457 26.5C39.2086 26.6749 38.6501 26.7758 38.0857 26.8L38.0957 27.21C38.1298 27.7005 38.2136 28.1863 38.3457 28.66C38.6145 29.6435 39.092 30.5575 39.7457 31.34V26.5ZM41.8057 26.5V31.42C42.4909 30.6195 42.9895 29.6768 43.2657 28.66C43.3977 28.1863 43.4814 27.7005 43.5157 27.21L43.5257 26.81H43.4457C43.0657 26.81 42.4057 26.69 41.8057 26.49V26.5Z" fill="#C09300"/>
<path d="M42.0357 25.3C42.1057 25.31 41.9457 24.95 41.9457 24.95C42.1257 25.13 42.7857 25.18 42.7857 25.18C42.3857 25 41.9857 23.67 42.0357 22.6C42.0757 21.54 41.8857 21.12 41.7357 20.96C41.5357 20.76 40.8857 20.58 40.4657 20.56C40.2157 20.55 40.2657 20.74 40.2657 20.74C39.8157 20.63 39.3657 20.58 39.1657 20.72C38.9857 20.84 38.9457 21.47 39.0857 21.36C39.4157 21.09 39.7057 21.34 39.9057 21.63C40.0857 21.88 40.0757 22.6 39.8157 23.45C39.5854 24.0925 39.2473 24.6911 38.8157 25.22C39.2157 25.22 39.7757 24.87 39.7757 24.87L39.6457 25.42C40.0657 25.22 40.3957 24.91 40.3957 24.91L40.7957 25.33C40.9257 25.15 41.1957 24.91 41.1957 24.91C41.1957 24.91 41.5257 25.26 42.0357 25.31V25.3Z" fill="white" stroke="#C09300" stroke-width="0.12"/>
<path d="M40.4156 22.76C40.4156 22.76 40.1956 24.4 39.7756 24.86M40.7756 22.71C40.7756 22.71 40.6756 24.38 40.3956 24.91M41.0856 22.78C41.0856 22.78 41.0856 24.6 41.1856 24.91M41.4856 22.87C41.4856 22.87 41.5656 24.4 41.9456 24.95" stroke="#C09300" stroke-width="0.13"/>
<path d="M40.0057 21.96C39.9967 21.844 39.9626 21.7314 39.9057 21.63C39.7057 21.33 39.4157 21.09 39.0857 21.36C39.0857 21.36 39.1957 21.01 39.4457 21C39.6257 20.99 40.0557 21.14 40.4357 21.78C40.4357 21.78 40.1557 21.72 40.0857 21.78C39.9657 21.88 40.0157 21.96 40.0157 21.96H40.0057Z" fill="#C09300" stroke="#C09300" stroke-width="0.03"/>
<path d="M39.0457 20.93C39.0757 20.83 39.1157 20.75 39.1757 20.72C39.3757 20.58 39.8157 20.62 40.2657 20.74C40.2657 20.74 40.2257 20.55 40.4657 20.56C40.8857 20.58 41.5257 20.76 41.7257 20.96C41.7897 21.0303 41.8405 21.1116 41.8757 21.2C41.7757 21.06 41.4957 21.07 41.4257 21.08C41.3257 21.09 41.2557 21.08 41.1157 21.12C41.0457 21.14 40.9457 21.16 40.8857 21.2C40.8457 21.24 40.8057 21.36 40.7457 21.36C40.6457 21.36 40.6457 21.34 40.6157 21.31C40.5857 21.26 40.5657 21.2 40.5257 21.21C40.4257 21.22 40.2457 21.14 40.0257 20.96C39.7957 20.78 39.7057 20.74 39.4257 20.76C39.1257 20.78 39.0457 20.95 39.0457 20.95V20.93Z" fill="#C09300" stroke="#C09300" stroke-width="0.03"/>
<path d="M40.6857 21.19C40.7519 21.19 40.8057 21.1362 40.8057 21.07C40.8057 21.0037 40.7519 20.95 40.6857 20.95C40.6194 20.95 40.5657 21.0037 40.5657 21.07C40.5657 21.1362 40.6194 21.19 40.6857 21.19Z" fill="white"/>
</g>
<defs>
<clipPath id="clip0_2553_26434">
<rect width="80" height="60" fill="white" transform="translate(0.805664)"/>
</clipPath>
</defs>
</svg>
