<svg width="660" height="577" viewBox="0 0 660 577" fill="none" xmlns="http://www.w3.org/2000/svg">
<path opacity="0.6" d="M513.791 80.2524C576.346 123.224 639.664 174.489 655.684 237.815C671.704 301.896 641.189 377.285 596.18 436.088C551.172 494.891 491.668 537.109 426.825 558.972C361.219 581.589 289.51 583.85 229.244 560.48C168.978 536.355 120.154 487.352 75.9083 427.041C31.6623 366.73 -7.24371 296.619 1.14778 232.538C10.3021 168.457 67.5168 110.408 129.309 67.4363C191.863 24.4646 258.995 -3.42931 324.601 0.34014C389.445 3.3557 451.237 37.2807 513.791 80.2524Z" fill="url(#paint0_linear_1958_24468)"/>
<defs>
<linearGradient id="paint0_linear_1958_24468" x1="-224.009" y1="509.875" x2="698.376" y2="-206.093" gradientUnits="userSpaceOnUse">
<stop stop-color="#FF8900"/>
<stop offset="1" stop-color="#FF8900" stop-opacity="0.6"/>
</linearGradient>
</defs>
</svg>
