<svg width="660" height="577" viewBox="0 0 660 577" fill="none" xmlns="http://www.w3.org/2000/svg">
<path opacity="0.6" d="M558.797 63.3574C614.505 110.908 641.903 181.024 653.775 251.946C665.647 322.868 662.907 394.596 624.551 444.564C586.194 493.726 513.134 521.128 438.248 543.694C364.274 567.066 289.388 584.796 213.588 573.513C137.788 563.036 61.0749 522.739 25.4581 463.906C-10.1587 405.073 -5.59241 327.704 21.8051 264.035C48.2894 199.56 95.7785 149.592 152.4 102.848C209.022 55.2981 272.949 11.7777 346.923 2.10653C420.896 -7.56467 504.002 16.6133 558.797 63.3574Z" fill="url(#paint0_linear_1958_24471)"/>
<defs>
<linearGradient id="paint0_linear_1958_24471" x1="-224.009" y1="509.875" x2="698.376" y2="-206.093" gradientUnits="userSpaceOnUse">
<stop stop-color="#FF8900"/>
<stop offset="1" stop-color="#FF8900" stop-opacity="0.6"/>
</linearGradient>
</defs>
</svg>
