<svg width="30" height="30" viewBox="0 0 30 30" fill="none" xmlns="http://www.w3.org/2000/svg">
<g clip-path="url(#clip0_1935_22051)">
<g clip-path="url(#clip1_1935_22051)">
<mask id="mask0_1935_22051" style="mask-type:luminance" maskUnits="userSpaceOnUse" x="0" y="0" width="30" height="30">
<path d="M15 30C23.2843 30 30 23.2843 30 15C30 6.71573 23.2843 0 15 0C6.71573 0 0 6.71573 0 15C0 23.2843 6.71573 30 15 30Z" fill="white"/>
</mask>
<g mask="url(#mask0_1935_22051)">
<path d="M6.44531 60.7031C24.2436 60.7031 38.6719 46.2748 38.6719 28.4766C38.6719 10.6783 24.2436 -3.75 6.44531 -3.75C-11.3529 -3.75 -25.7812 10.6783 -25.7812 28.4766C-25.7812 46.2748 -11.3529 60.7031 6.44531 60.7031Z" fill="url(#paint0_radial_1935_22051)"/>
</g>
<path d="M19.2188 11.9531C19.866 11.9531 20.3906 11.4285 20.3906 10.7812C20.3906 10.134 19.866 9.60938 19.2188 9.60938C18.5715 9.60938 18.0469 10.134 18.0469 10.7812C18.0469 11.4285 18.5715 11.9531 19.2188 11.9531Z" fill="white"/>
<path d="M19.6875 7.5H10.3125C8.7592 7.5 7.5 8.7592 7.5 10.3125V19.6875C7.5 21.2408 8.7592 22.5 10.3125 22.5H19.6875C21.2408 22.5 22.5 21.2408 22.5 19.6875V10.3125C22.5 8.7592 21.2408 7.5 19.6875 7.5Z" stroke="white" stroke-miterlimit="10"/>
<path d="M19.2 15.5999C19.2 17.9195 17.3196 19.7999 15 19.7999C12.6804 19.7999 10.8 17.9195 10.8 15.5999C10.8 13.2803 12.6804 11.3999 15 11.3999C17.3196 11.3999 19.2 13.2803 19.2 15.5999ZM11.85 15.5999C11.85 17.3396 13.2603 18.7499 15 18.7499C16.7397 18.7499 18.15 17.3396 18.15 15.5999C18.15 13.8602 16.7397 12.4499 15 12.4499C13.2603 12.4499 11.85 13.8602 11.85 15.5999Z" fill="white"/>
</g>
</g>
<defs>
<radialGradient id="paint0_radial_1935_22051" cx="0" cy="0" r="1" gradientUnits="userSpaceOnUse" gradientTransform="translate(6.44531 28.4766) scale(32.2266)">
<stop stop-color="#FFD676"/>
<stop offset="0.25" stop-color="#F2A454"/>
<stop offset="0.38" stop-color="#F05C3C"/>
<stop offset="0.7" stop-color="#C22F86"/>
<stop offset="0.96" stop-color="#6666AD"/>
<stop offset="0.99" stop-color="#5C6CB2"/>
</radialGradient>
<clipPath id="clip0_1935_22051">
<rect width="30" height="30" fill="white"/>
</clipPath>
<clipPath id="clip1_1935_22051">
<rect width="30" height="30" fill="white"/>
</clipPath>
</defs>
</svg>
