<svg width="84" height="105" viewBox="0 0 84 105" fill="none" xmlns="http://www.w3.org/2000/svg">
<path d="M74.5348 23.5045C75.3268 29.3437 71.3892 34.7434 65.7392 35.5597C60.0917 36.3787 54.8692 32.3074 54.0796 26.4657C53.2876 20.6266 57.2252 15.2268 62.8752 14.4105C68.5227 13.5916 73.7452 17.6628 74.5348 23.5045Z" fill="#FF8900"/>
<path d="M81.1956 84.1653C77.4616 91.4343 69.2041 97.6296 59.1739 100.775C55.8397 101.839 52.6288 102.306 49.5636 102.564C47.1334 102.713 45.6311 102.734 42.9657 102.564C41.4947 102.434 32.7394 101.251 31.374 100.955L39.8402 91.1093C53.6647 93.2853 62.5936 88.3535 62.8677 81.6825C63.1895 73.8571 52.1887 73.085 43.8005 73.241L41.2659 76.015L41.105 75.9292C40.157 77.1017 39.2166 78.2664 38.2586 79.4441L18.6911 104.316L2.10062 101.706C15.2814 86.6481 29.4278 67.1601 38.3265 55.5183L42.9682 49.4738L43.0612 49.5128C43.3479 48.7588 43.5164 48.1479 43.5465 47.7423C39.6189 46.64 31.7637 48.4235 26.0509 49.7259C24.2631 50.1367 22.5357 50.4955 20.9264 50.8283C20.0866 50.9817 16.5412 51.4704 13.72 51.9254C12.1509 52.11 10.5945 52.3855 9.45041 52.5441C7.96436 52.7287 6.28218 52.9471 4.62515 52.7417C-6.33791 50.4929 5.62842 37.065 5.63345 37.0624L40.1394 0.907227L54.6227 9.20313L49.0733 14.8369C43.197 20.8138 44.8515 19.4489 38.9551 25.2412C35.3443 28.7275 31.6808 32.2736 28.1379 35.7937C36.0685 34.1429 45.4399 32.7546 52.9506 35.6351C56.9914 37.1404 59.453 39.7792 60.2577 43.3331C61.2509 47.7189 59.4279 53.3111 54.8063 60.0679C57.9745 60.4111 60.9843 60.892 63.7905 61.425C68.1958 62.2387 72.7923 63.2552 76.5061 65.478C83.3002 69.4739 85.0201 76.6467 81.1931 84.1653H81.1956Z" fill="#FF8900"/>
</svg>
