<svg width="660" height="577" viewBox="0 0 660 577" fill="none" xmlns="http://www.w3.org/2000/svg">
<path opacity="0.6" d="M515.933 67.0896C579.544 104.12 638.477 154.544 655.315 213.634C671.218 272.725 645.025 341.27 601.059 397.997C558.028 455.512 497.224 501.209 421.452 534.299C345.681 568.178 254.007 589.451 179.171 568.966C103.399 547.693 43.5301 484.663 17.3374 419.27C-8.85521 353.088 -1.37158 284.543 13.5956 218.362C29.4983 152.18 52.8846 87.5743 104.334 48.9685C155.784 9.57473 234.362 -3.81913 309.198 0.908117C383.099 6.42324 451.387 30.0595 515.933 67.0896Z" fill="url(#paint0_linear_1953_23326)"/>
<defs>
<linearGradient id="paint0_linear_1953_23326" x1="-224.009" y1="509.875" x2="698.376" y2="-206.093" gradientUnits="userSpaceOnUse">
<stop stop-color="#FF8900"/>
<stop offset="1" stop-color="#FF8900" stop-opacity="0.6"/>
</linearGradient>
</defs>
</svg>
