<svg width="30" height="30" viewBox="0 0 30 30" fill="none" xmlns="http://www.w3.org/2000/svg">
<g clip-path="url(#clip0_1935_22043)">
<path d="M30 15C30 6.71573 23.2843 0 15 0C6.71573 0 0 6.71573 0 15C0 23.2843 6.71573 30 15 30C23.2843 30 30 23.2843 30 15Z" fill="#FF0000"/>
<path fill-rule="evenodd" clip-rule="evenodd" d="M22.3362 8.8376C23.1393 9.05379 23.7726 9.68704 23.9888 10.4902C24.3904 11.9574 24.3749 15.0155 24.3749 15.0155C24.3749 15.0155 24.3749 18.0581 23.9888 19.5254C23.7726 20.3285 23.1393 20.9617 22.3362 21.1779C20.8689 21.564 14.9999 21.564 14.9999 21.564C14.9999 21.564 9.14638 21.564 7.66369 21.1625C6.86056 20.9462 6.22734 20.313 6.01112 19.5099C5.625 18.0581 5.625 15 5.625 15C5.625 15 5.625 11.9574 6.01112 10.4902C6.22734 9.68704 6.876 9.03835 7.66369 8.8221C9.13094 8.43604 14.9999 8.43604 14.9999 8.43604C14.9999 8.43604 20.8689 8.43604 22.3362 8.8376ZM18.0117 15L13.1311 17.811V12.1891L18.0117 15Z" fill="white"/>
</g>
<defs>
<clipPath id="clip0_1935_22043">
<rect width="30" height="30" fill="white"/>
</clipPath>
</defs>
</svg>
